<?xml version="1.0" encoding="UTF-8"?>
<svg width="207px" height="166px" viewBox="0 0 207 166" version="1.1" xmlns="http://www.w3.org/2000/svg" xmlns:xlink="http://www.w3.org/1999/xlink">
    <title>Group</title>
    <g id="Page-1" stroke="none" stroke-width="1" fill="none" fill-rule="evenodd">
        <g id="Leamo_IMD22_GuexLucile_A_Desktop_Homepage" transform="translate(-617.000000, -6206.000000)">
            <g id="points-de-vente" transform="translate(165.000000, 6055.000000)">
                <g id="belgique" transform="translate(443.000000, 151.000000)">
                    <g id="Group" transform="translate(9.000000, 0.000000)">
                        <path d="M87.6429678,127.223312 C89.4600556,130.659695 108.426788,134.597081 113.423444,127.223312 C118.4201,119.849544 119.565896,110.123995 123.928211,113.401708 C128.290525,116.679422 120.593985,123.954293 122.261098,127.223312 C123.928211,130.492332 126.557119,140.151588 136.268541,146.021259 C145.979962,151.890931 156.943348,163.598936 160.421028,165.531676 C163.898707,167.464416 181.567495,163.170568 179.947114,157.141141 C178.326732,151.111713 171.944103,143.460817 171.944103,134.578605 C171.944103,125.696394 181.91635,106.970174 186.810097,110.185941 C191.703845,113.401708 194.49251,114.380893 194.49251,110.185941 C194.49251,105.99099 201.806824,96.6936298 204.899083,96.6936298 C207.991342,96.6936298 204.364774,82.1819236 199.428642,82.1819236 C194.49251,82.1819236 193.564404,77.3903327 196.496523,74.4799493 C199.428642,71.569566 193.673081,65.6683778 186.810097,63.064465 C179.947114,60.4605522 169.37388,62.0406091 166.387422,58.7852316 C163.400965,55.5298541 167.990415,48.7179486 169.967259,43.3134166 C171.944103,37.9088847 175.635877,28.8321401 171.944103,26.4108054 C168.252328,23.9894708 164.391017,24.8371553 160.421028,20.9758438 C156.451039,17.1145323 155.687036,15.242019 148.527362,18.1089314 C141.367689,20.9758438 142.74898,15.0029285 140.659111,15.0029285 C138.569243,15.0029285 132.785427,10.9612124 132.785427,6.81625264 C132.785427,2.67129289 131.473689,-1.29543577 128.870863,2.76040844 C126.268037,6.81625264 122.476615,9.01697196 120.448357,6.81625264 C118.4201,4.61553332 121.720824,0 118.4201,0 C115.119375,0 113.326721,3.84935696 110.019665,5.3328048 C106.712608,6.81625264 104.797711,5.52081687 103.305569,2.76040844 C101.813427,0 95.3101653,3.87978666 96.7381876,6.81625264 C98.1662099,9.75271862 95.1352333,13.2673489 92.3443758,11.5100338 C89.5535182,9.75271862 88.3200286,11.8969256 85.9921566,15.0029285 C83.6642846,18.1089314 75.5254269,26.4108054 71.265269,26.4108054 C67.0051111,26.4108054 65.2206266,20.9758438 63.1437996,20.9758438 C61.0669726,20.9758438 54.2029019,18.3849722 50.8849779,20.9758438 C47.5670539,23.5667153 45.8206065,24.707829 42.9504338,18.1089314 C40.0802611,11.5100338 41.2811474,11.8969256 34.0997384,15.0029285 C26.9183293,18.1089314 0,36.7514693 0,40.032443 C0,43.3134166 1.82686873,54.5059982 4.93721871,58.7852316 C8.04756869,63.064465 15.5343615,72.8074027 19.1728841,70.5403901 C22.8114067,68.2733775 29.3038004,56.7981205 34.0997384,65.6390349 C38.8956763,74.4799493 40.4595455,86.6529158 42.9504338,86.6529158 C45.441322,86.6529158 59.5096241,84.0240072 59.5096241,88.4493549 C59.5096241,92.8747026 60.756155,102.462231 63.1437996,102.462231 C65.5314442,102.462231 66.2628438,97.1326869 73.6485665,99.7974591 C81.0342892,102.462231 93.4409123,99.0997496 89.7165345,106.250729 C88.5875057,108.418517 87.3409639,113.519999 87.6429678,115.52418 C88.3371979,120.131281 92.3443758,120.131281 89.7165345,122.288267 C88.1485008,123.575342 87.4911925,123.946364 87.2595336,124.696723 C87.1029592,125.203878 86.9101369,125.83742 87.6429678,127.223312 Z" id="Path-belgium" fill="#080A27"></path>
                        <text id="location-dot-copy" font-family="FontAwesome6Free-Solid, Font Awesome 6 Free" font-size="36" font-weight="800" fill="#FF4949">
                            <tspan x="90" y="58">location-dot</tspan>
                        </text>
                    </g>
                </g>
            </g>
        </g>
    </g>
</svg>