<?xml version="1.0" encoding="UTF-8"?>
<svg width="226px" height="223px" viewBox="0 0 226 223" version="1.1" xmlns="http://www.w3.org/2000/svg" xmlns:xlink="http://www.w3.org/1999/xlink">
    <title>Group</title>
    <g id="Page-1" stroke="none" stroke-width="1" fill="none" fill-rule="evenodd">
        <g id="Leamo_IMD22_GuexLucile_A_Desktop_Homepage" transform="translate(-251.000000, -6179.000000)">
            <g id="points-de-vente" transform="translate(165.000000, 6055.000000)">
                <g id="Group" transform="translate(86.000000, 124.000000)">
                    <path d="M137.72077,217.161005 C135.488446,211.490548 136.383937,201.263825 139.953094,198.8128 C143.522251,196.361775 152.036803,191.363182 162.852639,193.862479 C173.668475,196.361775 185.268481,202.968114 187.255506,202.968114 C189.24253,202.968114 197.927511,200.706236 205.605681,192.179862 C213.283851,183.653488 216.945611,179.00659 216.945611,175.895522 C216.945611,172.784455 215.491546,175.895522 212.400182,175.895522 C209.308817,175.895522 202.979302,171.277193 204.292492,166.656893 C205.605681,162.036593 206.918871,160.653459 205.605681,158.366952 C204.292492,156.080446 202.697552,156.986773 201.311462,154.260895 C199.925372,151.535016 202.979302,151.521224 204.292492,150.010022 C205.605681,148.498819 209.8999,144.081458 205.605681,139.01292 C201.311462,133.944383 204.292492,132.644985 204.292492,129.808771 C204.292492,126.972557 202.035539,117.675805 199.37468,117.675805 C196.713821,117.675805 193.18998,123.569232 190.222743,123.569232 C187.255506,123.569232 190.222743,122.926593 190.222743,120.301199 C190.222743,117.675805 189.556789,113.950996 192.430438,110.792642 C195.304088,107.634288 205.605681,96.805645 205.605681,94.7949772 C205.605681,92.7843095 203.085697,90.7253699 208.733496,90.7253699 C214.381295,90.7253699 215.027546,90.3411659 215.027546,85.8745478 C215.027546,81.4079297 216.572243,65.6250252 223.226854,58.4660234 C229.881465,51.3070217 223.26626,49.7623244 216.945611,49.7623244 C210.624962,49.7623244 204.459965,46.9428579 199.37468,43.4919176 C194.289395,40.0409774 184.221653,38.3554053 180.953761,38.3554053 C177.68587,38.3554053 170.53869,34.2296451 168.845237,30.5186283 C167.151784,26.8076114 169.229441,22.5271844 167.422697,22.5271844 C165.615953,22.5271844 162.002464,27.4568177 159.608578,27.4568177 C157.214691,27.4568177 155.966521,25.8648338 155.966521,22.5271844 C155.966521,19.1895351 144.375381,14.538696 139.953094,11.4020149 C135.530807,8.26533384 130.46818,7.83975399 128.430913,4.63706861 C126.393647,1.43438322 122.440896,-1.41857798 117.155323,0.769414711 C111.869749,2.9574074 109.960551,4.2942404 109.960551,13.4107124 C109.960551,22.5271844 104.688495,27.2046222 97.9208831,28.8616252 C91.1532711,30.5186283 87.3861013,32.0820431 84.5094968,35.2187242 C81.6328923,38.3554053 86.7782709,39.6321449 86.7782709,41.5620313 C86.7782709,43.4919176 82.3756867,46.2503056 76.0432162,44.8711116 C69.7107457,43.4919176 64.2974095,44.7686572 62.4611112,41.5620313 C60.624813,38.3554053 60.2189359,35.2187242 56.9334989,35.2187242 C53.6480619,35.2187242 45.2960574,33.218893 49.4720596,38.3554053 C53.6480619,43.4919176 54.6243342,48.4422388 54.6243342,51.5020791 C54.6243342,54.5619194 56.6221951,61.3899146 53.0471274,61.3899146 C49.4720596,61.3899146 40.1339314,59.2216247 36.1293433,61.3899146 C32.1247551,63.5582045 32.5266916,56.1046463 27.1094148,56.1046463 C21.692138,56.1046463 8.75628387,59.5309582 5.44326297,61.3899146 C2.13024207,63.248871 -2.40435061,65.2940186 1.51945618,68.1991922 C5.44326297,71.1043657 7.64406247,75.3168181 2.89076902,75.3168181 C-1.86252442,75.3168181 3.87886298,81.5793438 5.44326297,81.5793438 C7.00766297,81.5793438 7.43422796,79.668175 12.0151222,81.5793438 C16.5960164,83.4905125 33.5916264,87.7699543 38.5557395,92.432615 C43.5198526,97.0952757 45.6339599,102.241639 45.6339599,106.517141 C45.6339599,110.792642 62.4611112,120.866339 62.4611112,123.569232 C62.4611112,126.272124 63.106377,154.1545 60.0199379,162.422768 C56.9334989,170.691035 56.1335664,195.47121 50.8837631,195.47121 C45.6339599,195.47121 66.6380986,207.950945 73.5724888,210.114309 C80.5068789,212.277673 88.1426877,210.114309 96.4345988,210.114309 C104.72651,210.114309 112.26479,218.782543 118.553914,220.807003 C124.843039,222.831463 139.953094,222.831463 137.72077,217.161005 Z" id="france" fill="#080A27"></path>
                    <text id="location-dot" font-family="FontAwesome6Free-Solid, Font Awesome 6 Free" font-size="36" font-weight="800" fill="#FF4949">
                        <tspan x="113" y="70">location-dot</tspan>
                    </text>
                </g>
            </g>
        </g>
    </g>
</svg>