<?xml version="1.0" encoding="UTF-8"?>
<svg width="279px" height="175px" viewBox="0 0 279 175" version="1.1" xmlns="http://www.w3.org/2000/svg" xmlns:xlink="http://www.w3.org/1999/xlink">
    <title>Group 2</title>
    <g id="Page-1" stroke="none" stroke-width="1" fill="none" fill-rule="evenodd">
        <g id="Leamo_IMD22_GuexLucile_A_Desktop_Homepage" transform="translate(-963.000000, -6202.000000)">
            <g id="points-de-vente" transform="translate(165.000000, 6055.000000)">
                <g id="Group-2" transform="translate(798.000000, 147.543298)">
                    <path d="M125.50654,19.8592428 C116.306823,17.3075216 105.558098,18.0786427 100.076013,22.4109641 C94.593928,26.7432855 95.7254416,31.7761346 89.6298682,31.7761346 C83.5342948,31.7761346 79.5052174,30.3498885 79.5052174,27.6375463 C79.5052174,24.925204 71.1058951,26.3698579 67.1778863,31.7761346 C63.2498774,37.1824112 63.1600302,37.7565912 69.4830294,37.7565912 C75.8060286,37.7565912 70.8391611,43.786183 67.1778863,47.0389337 C63.5166114,50.2916844 49.3555059,68.1361878 44.0034474,70.265848 C38.6513889,72.3955083 35.5502554,74.9533468 35.5502554,82.0484707 C35.5502554,89.1435946 28.5225169,94.7057 23.6328619,97.4951759 C18.7432069,100.284652 13.1249469,112.902573 13.1249469,116.090746 C13.1249469,119.278919 19.0380181,124.144708 16.0814825,126.882241 C13.1249469,129.619774 15.9074035,135.42896 13.1249469,135.42896 C10.3424903,135.42896 2.77180529,137.575466 5.63674135,142.456698 C8.50167741,147.33793 16.9490699,145.302329 19.0815379,142.456698 C21.2140059,139.611068 26.051718,136.076052 23.6328619,133.942669 C21.2140059,131.809287 18.1956112,129.152472 23.6328619,124.435635 C29.0701127,119.718797 41.6101157,115.360828 47.0464563,117.539812 C52.4827969,119.718797 56.5165951,121.651927 56.5165951,133.942669 C56.5165951,146.233412 61.9968402,151.656089 65.7399348,157.922405 C69.4830294,164.188721 69.3805667,171.002261 79.5052174,168.336524 C89.6298682,165.670787 94.5288728,163.700977 98.4684929,161.557681 C102.408113,159.414385 106.164005,160.761628 109.754999,163.170606 C113.345992,165.579583 116.273117,165.340668 119.09053,165.340668 C121.907944,165.340668 122.618741,157.922405 128.204,157.922405 C133.789259,157.922405 130.113337,150.40699 131.951298,150.40699 C133.789259,150.40699 138.428771,142.989718 136.109015,138.466194 C134.562511,135.450511 136.770232,132.440776 142.732179,129.436989 C145.284596,122.810153 148.184634,119.496735 151.432293,119.496735 C156.303781,119.496735 157.42004,121.989028 156.86191,124.435635 C156.303781,126.882241 154.424149,134.47569 156.86191,138.466194 C159.299672,142.456698 168.550904,150.40699 171.074878,150.40699 C173.598852,150.40699 181.523694,148.249815 179.034417,154.903748 C176.54514,161.557681 175.686632,158.434932 179.034417,159.996307 C182.382202,161.557681 184.891306,167.3194 184.891306,170.21513 C184.891306,173.11086 186.025409,174.528489 190.025501,173.819674 C194.025593,173.11086 196.144106,167.510731 193.084803,165.340668 C190.025501,163.170606 188.888424,161.531906 193.084803,154.903748 C197.281183,148.27559 201.209898,140.196098 204.316785,137.069384 C207.423672,133.942669 206.274699,125.874788 204.316785,120.982767 C202.358871,116.090746 209.632397,111.198725 214.356174,116.090746 C219.079951,120.982767 216.824633,124.327494 219.932511,126.882241 C223.04039,129.436989 224.346987,133.842543 231.172424,131.639766 C237.99786,129.436989 237.669724,126.882241 243.148908,126.882241 C248.628093,126.882241 251.107456,132.391725 253.635396,135.42896 C256.163335,138.466194 260.73147,136.91525 260.73147,135.42896 C260.73147,133.942669 256.155404,129.374534 258.443437,124.435635 C260.73147,119.496735 256.528152,121.453657 253.635396,119.496735 C250.74264,117.539812 253.022742,111.179319 255.73309,107.146512 C258.443437,103.113705 262.682839,100.83162 266.441639,104.99925 C270.200439,109.166881 271.150546,107.949504 274.851251,108.558192 C278.551956,109.166881 279.502063,104.109019 274.851251,98.8499139 C270.200439,93.5908086 280.315566,86.7676562 277.583408,79.4270635 C274.851251,72.0864708 273.959239,68.4452253 270.200439,70.265848 C266.441639,72.0864708 261.153785,82.0484707 258.443437,82.0484707 C255.73309,82.0484707 241.671799,76.4588252 241.671799,73.3623366 C241.671799,70.265848 243.108263,68.164695 235.170533,66.2583313 C227.232804,64.3519676 219.932511,66.7966337 219.932511,64.2994261 C219.932511,61.8022185 219.932511,60.7959995 219.932511,55.8561085 C219.932511,50.9162175 220.992263,43.4954431 224.457027,40.6260171 C227.921791,37.7565912 229.782553,29.2720235 223.042372,24.4600925 C216.302192,19.6481616 211.246313,13.7703786 202.165558,11.8174215 C193.084803,9.86446439 191.717733,10.1103189 188.30452,11.8174215 C184.891306,13.5245241 179.034417,10.2857876 179.034417,8.7571278 C179.034417,7.22846797 178.170952,8.7571278 174.622915,8.7571278 C171.074878,8.7571278 174.703214,3.50360652 171.074878,2.07575064 C167.446541,0.647894751 162.291528,-1.77730845 156.86191,2.07575064 C151.432293,5.92880972 151.773282,11.8174215 155.536477,11.8174215 C159.299672,11.8174215 165.433112,9.96756466 165.433112,11.8174215 C165.433112,13.6672783 166.59299,18.0014552 163.875703,18.0014552 C161.158416,18.0014552 163.062867,15.0075819 159.299672,16.5045185 C155.536477,18.0014552 151.803057,19.4983919 149.453561,18.0014552 C147.104064,16.5045185 146.950853,15.0075819 141.529934,16.5045185 C136.109015,18.0014552 134.706256,22.4109641 125.50654,19.8592428 Z" id="Path" fill="#080A27"></path>
                    <text id="location-dot-copy" font-family="FontAwesome6Free-Solid, Font Awesome 6 Free" font-size="36" font-weight="800" fill="#FF4949">
                        <tspan x="0" y="134.456702">location-dot</tspan>
                    </text>
                </g>
            </g>
        </g>
    </g>
</svg>